# xmcd
#
# Track frame offsets: 
#        150
#        15279
#        29695
#        51414
#        66797
#        83526
#        99388
#        116057
#        135979
#        151138
#        164531
#        177541
#        191362
#        210389
#        232604
#        250772
#        266097
#        281328
#
# Disc length: 4092 seconds
#
# Revision: 0
# Processed by: cddbd v1.5.2PL0 Copyright (c) Steve Scherf et al.
# Submitted via: ExactAudioCopy v0.99pb1
#
DISCID=e50ffa12
DTITLE=Various Artist - Catamount Collective Presents H.U.A.C
DYEAR=2003
DGENRE=Alt. Rock
TTITLE0=Hackensaw Boys, The - Nashville
TTITLE1=Two Cow Garage - Found
TTITLE2=Jen Cass - Pirate
TTITLE3=Dennis Jay - What You See
TTITLE4=Mary Alice Wood - Crazy For You
TTITLE5=Coming Grass, The - Firewater
TTITLE6=Dollar Book Floyd - Interrogations
TTITLE7=Misty River - Mother, Mother
TTITLE8=Nels Andrews - Meadowlake
TTITLE9=Lucky 57 - Left Town
TTITLE10=Kate and The Retreads - Homewrecker, Heartbreaker
TTITLE11=Letterpress Opry, The - Jerusalem
TTITLE12=Josh Roy Brown - Sleeping Under Water
TTITLE13=Jo Serrapere and The Willie Dunns - Jesus Wears Red
TTITLE14=Sid Hillman Quartet - Two More Days
TTITLE15=Big Breakfast - Sangria
TTITLE16=Starlings TN - Last Five
TTITLE17=Callie Chappell and Hayseed - Leaning Into Jesus
EXTD=
EXTT0=
EXTT1=
EXTT2=
EXTT3=
EXTT4=
EXTT5=
EXTT6=
EXTT7=
EXTT8=
EXTT9=
EXTT10=
EXTT11=
EXTT12=
EXTT13=
EXTT14=
EXTT15=
EXTT16=
EXTT17=
PLAYORDER=
